# xmcd
#
# Track frame offsets:
#	150
#	14348
#	31146
#	48902
#	65052
#	79334
#	97887
#	115549
#	138895
#	161513
#	200910
#
# Disc length: 2867
#
# Revision: 1
# Processed by: cddbd v1.5.1PL0 Copyright (c) Steve Scherf et al.
# Submitted via: ExactAudioCopy v0.90a11
# Normalized: r0:TRMNUM
#
DISCID=8a0b310b
DTITLE=Legendary Shack Shakers - 2002-03-22 First Ave - Minneapolis, MN
DYEAR=1900
DGENRE=
TTITLE0=I Ain't Home
TTITLE1=She Never Wake Up
TTITLE2=The CB Song 
TTITLE3=Help Me From My Brain
TTITLE4=White Lightening
TTITLE5=Pinetree Boogie
TTITLE6=Hunkerdown 
TTITLE7=Wild Wild Lover
TTITLE8=Back To Paducah  
TTITLE9=Hip Shake
TTITLE10=Rollin In My Sweet Baby's Arms
EXTD=
EXTT0=
EXTT1=
EXTT2=
EXTT3=
EXTT4=
EXTT5=
EXTT6=
EXTT7=
EXTT8=
EXTT9=
EXTT10=
PLAYORDER=
